<?xml version="1.0" encoding="UTF-8"?>
<svg id="Layer_1" data-name="Layer 1" xmlns="http://www.w3.org/2000/svg" viewBox="0 0 1031.81 396.85">
  <defs>
    <style>
      .cls-1 {
        fill: lime;
      }

      .cls-2 {
        fill: #ff2600;
      }

      .cls-3 {
        fill: #7f7f7f;
      }
    </style>
  </defs>
  <rect y="0" width="1031.81" height="396.85"/>
  <path class="cls-3" d="M0,0v396.85h1031.81V0H0ZM20.34,297.14v-38.69h38.69v38.69H20.34ZM59.03,298.14v38.69H20.34v-38.69h38.69ZM20.34,257.45v-38.68h38.69v38.68H20.34ZM20.34,217.77v-38.69h38.69v38.69H20.34ZM20.34,178.08v-38.69h38.69v38.69H20.34ZM20.34,138.4v-38.69h38.69v38.69H20.34ZM20.34,98.71v-38.68h38.69v38.68H20.34ZM20.34,59.03V20.34h38.69v38.69H20.34ZM20.34,337.82h38.69v38.69H20.34v-38.69ZM60.03,297.14v-38.69h38.68v38.69h-38.68ZM98.71,298.14v38.69h-38.68v-38.69h38.68ZM60.03,257.45v-38.68h38.68v38.68h-38.68ZM60.03,217.77v-38.69h38.68v38.69h-38.68ZM60.03,178.08v-38.69h38.68v38.69h-38.68ZM60.03,138.4v-38.69h38.68v38.69h-38.68ZM60.03,98.71v-38.68h38.68v38.68h-38.68ZM60.03,59.03V20.34h38.68v38.69h-38.68ZM60.03,337.82h38.68v38.69h-38.68v-38.69ZM99.71,297.14v-38.69h38.69v38.69h-38.69ZM138.4,298.14v38.69h-38.69v-38.69h38.69ZM99.71,257.45v-38.68h38.69v38.68h-38.69ZM99.71,217.77v-38.69h38.69v38.69h-38.69ZM99.71,178.08v-38.69h38.69v38.69h-38.69ZM99.71,138.4v-38.69h38.69v38.69h-38.69ZM99.71,98.71v-38.68h38.69v38.68h-38.69ZM99.71,59.03V20.34h38.69v38.69h-38.69ZM99.71,337.82h38.69v38.69h-38.69v-38.69ZM139.4,297.14v-38.69h38.69v38.69h-38.69ZM178.08,298.14v38.69h-38.69v-38.69h38.69ZM139.4,257.45v-38.68h38.69v38.68h-38.69ZM139.4,217.77v-38.69h38.69v38.69h-38.69ZM139.4,178.08v-38.69h38.69v38.69h-38.69ZM139.4,138.4v-38.69h38.69v38.69h-38.69ZM139.4,98.71v-38.68h38.69v38.68h-38.69ZM139.4,59.03V20.34h38.69v38.69h-38.69ZM139.4,337.82h38.69v38.69h-38.69v-38.69ZM179.08,297.14v-38.69h38.69v38.69h-38.69ZM217.77,298.14v38.69h-38.69v-38.69h38.69ZM179.08,257.45v-38.68h38.69v38.68h-38.69ZM179.08,217.77v-38.69h38.69v38.69h-38.69ZM179.08,178.08v-38.69h38.69v38.69h-38.69ZM179.08,138.4v-38.69h38.69v38.69h-38.69ZM179.08,98.71v-38.68h38.69v38.68h-38.69ZM179.08,59.03V20.34h38.69v38.69h-38.69ZM179.08,337.82h38.69v38.69h-38.69v-38.69ZM218.77,297.14v-38.69h38.68v38.69h-38.68ZM257.45,298.14v38.69h-38.68v-38.69h38.68ZM218.77,257.45v-38.68h38.68v38.68h-38.68ZM218.77,217.77v-38.69h38.68v38.69h-38.68ZM218.77,178.08v-38.69h38.68v38.69h-38.68ZM218.77,138.4v-38.69h38.68v38.69h-38.68ZM218.77,98.71v-38.68h38.68v38.68h-38.68ZM218.77,59.03V20.34h38.68v38.69h-38.68ZM218.77,337.82h38.68v38.69h-38.68v-38.69ZM258.45,297.14v-38.69h38.69v38.69h-38.69ZM297.14,298.14v38.69h-38.69v-38.69h38.69ZM258.45,257.45v-38.68h38.69v38.68h-38.69ZM258.45,217.77v-38.69h38.69v38.69h-38.69ZM258.45,178.08v-38.69h38.69v38.69h-38.69ZM258.45,138.4v-38.69h38.69v38.69h-38.69ZM258.45,98.71v-38.68h38.69v38.68h-38.69ZM258.45,59.03V20.34h38.69v38.69h-38.69ZM258.45,337.82h38.69v38.69h-38.69v-38.69ZM298.14,297.14v-38.69h38.69v38.69h-38.69ZM336.82,298.14v38.69h-38.69v-38.69h38.69ZM298.14,257.45v-38.68h38.69v38.68h-38.69ZM298.14,217.77v-38.69h38.69v38.69h-38.69ZM298.14,178.08v-38.69h38.69v38.69h-38.69ZM298.14,138.4v-38.69h38.69v38.69h-38.69ZM298.14,98.71v-38.68h38.69v38.68h-38.69ZM298.14,59.03V20.34h38.69v38.69h-38.69ZM298.14,337.82h38.69v38.69h-38.69v-38.69ZM337.82,297.14v-38.69h38.69v38.69h-38.69ZM376.51,298.14v38.69h-38.69v-38.69h38.69ZM337.82,257.45v-38.68h38.69v38.68h-38.69ZM337.82,217.77v-38.69h38.69v38.69h-38.69ZM337.82,178.08v-38.69h38.69v38.69h-38.69ZM337.82,138.4v-38.69h38.69v38.69h-38.69ZM337.82,98.71v-38.68h38.69v38.68h-38.69ZM337.82,59.03V20.34h38.69v38.69h-38.69ZM337.82,337.82h38.69v38.69h-38.69v-38.69ZM377.51,297.14v-38.69h38.69v38.69h-38.69ZM416.19,298.14v38.69h-38.69v-38.69h38.69ZM377.51,257.45v-38.68h38.69v38.68h-38.69ZM377.51,217.77v-38.69h38.69v38.69h-38.69ZM377.51,178.08v-38.69h38.69v38.69h-38.69ZM377.51,138.4v-38.69h38.69v38.69h-38.69ZM377.51,98.71v-38.68h38.69v38.68h-38.69ZM377.51,59.03V20.34h38.69v38.69h-38.69ZM377.51,337.82h38.69v38.69h-38.69v-38.69ZM417.19,297.14v-38.69h38.69v38.69h-38.69ZM455.88,298.14v38.69h-38.69v-38.69h38.69ZM417.19,257.45v-38.68h38.69v38.68h-38.69ZM417.19,217.77v-38.69h38.69v38.69h-38.69ZM417.19,178.08v-38.69h38.69v38.69h-38.69ZM417.19,138.4v-38.69h38.69v38.69h-38.69ZM417.19,98.71v-38.68h38.69v38.68h-38.69ZM417.19,59.03V20.34h38.69v38.69h-38.69ZM417.19,337.82h38.69v38.69h-38.69v-38.69ZM456.88,297.14v-38.69h38.69v38.69h-38.69ZM495.56,298.14v38.69h-38.69v-38.69h38.69ZM456.88,257.45v-38.68h38.69v38.68h-38.69ZM456.88,217.77v-38.69h38.69v38.69h-38.69ZM456.88,178.08v-38.69h38.69v38.69h-38.69ZM456.88,138.4v-38.69h38.69v38.69h-38.69ZM456.88,98.71v-38.68h38.69v38.68h-38.69ZM456.88,59.03V20.34h38.69v38.69h-38.69ZM456.88,337.82h38.69v38.69h-38.69v-38.69ZM496.56,297.14v-38.69h38.69v38.69h-38.69ZM535.25,298.14v38.69h-38.69v-38.69h38.69ZM496.56,257.45v-38.68h38.69v38.68h-38.69ZM496.56,217.77v-38.69h38.69v38.69h-38.69ZM496.56,178.08v-38.69h38.69v38.69h-38.69ZM496.56,138.4v-38.69h38.69v38.69h-38.69ZM496.56,98.71v-38.68h38.69v38.68h-38.69ZM496.56,59.03V20.34h38.69v38.69h-38.69ZM496.56,337.82h38.69v38.69h-38.69v-38.69ZM536.25,297.14v-38.69h38.69v38.69h-38.69ZM574.93,298.14v38.69h-38.69v-38.69h38.69ZM536.25,257.45v-38.68h38.69v38.68h-38.69ZM536.25,217.77v-38.69h38.69v38.69h-38.69ZM536.25,178.08v-38.69h38.69v38.69h-38.69ZM536.25,138.4v-38.69h38.69v38.69h-38.69ZM536.25,98.71v-38.68h38.69v38.68h-38.69ZM536.25,59.03V20.34h38.69v38.69h-38.69ZM536.25,337.82h38.69v38.69h-38.69v-38.69ZM575.93,297.14v-38.69h38.69v38.69h-38.69ZM614.62,298.14v38.69h-38.69v-38.69h38.69ZM575.93,257.45v-38.68h38.69v38.68h-38.69ZM575.93,217.77v-38.69h38.69v38.69h-38.69ZM575.93,178.08v-38.69h38.69v38.69h-38.69ZM575.93,138.4v-38.69h38.69v38.69h-38.69ZM575.93,98.71v-38.68h38.69v38.68h-38.69ZM575.93,59.03V20.34h38.69v38.69h-38.69ZM575.93,337.82h38.69v38.69h-38.69v-38.69ZM615.62,297.14v-38.69h38.69v38.69h-38.69ZM654.3,298.14v38.69h-38.69v-38.69h38.69ZM615.62,257.45v-38.68h38.69v38.68h-38.69ZM615.62,217.77v-38.69h38.69v38.69h-38.69ZM615.62,178.08v-38.69h38.69v38.69h-38.69ZM615.62,138.4v-38.69h38.69v38.69h-38.69ZM615.62,98.71v-38.68h38.69v38.68h-38.69ZM615.62,59.03V20.34h38.69v38.69h-38.69ZM615.62,337.82h38.69v38.69h-38.69v-38.69ZM655.3,297.14v-38.69h38.69v38.69h-38.69ZM693.99,298.14v38.69h-38.69v-38.69h38.69ZM655.3,257.45v-38.68h38.69v38.68h-38.69ZM655.3,217.77v-38.69h38.69v38.69h-38.69ZM655.3,178.08v-38.69h38.69v38.69h-38.69ZM655.3,138.4v-38.69h38.69v38.69h-38.69ZM655.3,98.71v-38.68h38.69v38.68h-38.69ZM655.3,59.03V20.34h38.69v38.69h-38.69ZM655.3,337.82h38.69v38.69h-38.69v-38.69ZM694.99,297.14v-38.69h38.69v38.69h-38.69ZM733.67,298.14v38.69h-38.69v-38.69h38.69ZM694.99,257.45v-38.68h38.69v38.68h-38.69ZM694.99,217.77v-38.69h38.69v38.69h-38.69ZM694.99,178.08v-38.69h38.69v38.69h-38.69ZM694.99,138.4v-38.69h38.69v38.69h-38.69ZM694.99,98.71v-38.68h38.69v38.68h-38.69ZM694.99,59.03V20.34h38.69v38.69h-38.69ZM694.99,337.82h38.69v38.69h-38.69v-38.69ZM734.67,297.14v-38.69h38.69v38.69h-38.69ZM773.36,298.14v38.69h-38.69v-38.69h38.69ZM734.67,257.45v-38.68h38.69v38.68h-38.69ZM734.67,217.77v-38.69h38.69v38.69h-38.69ZM734.67,178.08v-38.69h38.69v38.69h-38.69ZM734.67,138.4v-38.69h38.69v38.69h-38.69ZM734.67,98.71v-38.68h38.69v38.68h-38.69ZM734.67,59.03V20.34h38.69v38.69h-38.69ZM734.67,337.82h38.69v38.69h-38.69v-38.69ZM774.36,297.14v-38.69h38.69v38.69h-38.69ZM813.04,298.14v38.69h-38.69v-38.69h38.69ZM774.36,257.45v-38.68h38.69v38.68h-38.69ZM774.36,217.77v-38.69h38.69v38.69h-38.69ZM774.36,178.08v-38.69h38.69v38.69h-38.69ZM774.36,138.4v-38.69h38.69v38.69h-38.69ZM774.36,98.71v-38.68h38.69v38.68h-38.69ZM774.36,59.03V20.34h38.69v38.69h-38.69ZM774.36,337.82h38.69v38.69h-38.69v-38.69ZM814.04,297.14v-38.69h38.69v38.69h-38.69ZM852.73,298.14v38.69h-38.69v-38.69h38.69ZM814.04,257.45v-38.68h38.69v38.68h-38.69ZM814.04,217.77v-38.69h38.69v38.69h-38.69ZM814.04,178.08v-38.69h38.69v38.69h-38.69ZM814.04,138.4v-38.69h38.69v38.69h-38.69ZM814.04,98.71v-38.68h38.69v38.68h-38.69ZM814.04,59.03V20.34h38.69v38.69h-38.69ZM814.04,337.82h38.69v38.69h-38.69v-38.69ZM853.73,297.14v-38.69h38.68v38.69h-38.68ZM892.41,298.14v38.69h-38.68v-38.69h38.68ZM853.73,257.45v-38.68h38.68v38.68h-38.68ZM853.73,217.77v-38.69h38.68v38.69h-38.68ZM853.73,178.08v-38.69h38.68v38.69h-38.68ZM853.73,138.4v-38.69h38.68v38.69h-38.68ZM853.73,98.71v-38.68h38.68v38.68h-38.68ZM853.73,59.03V20.34h38.68v38.69h-38.68ZM853.73,337.82h38.68v38.69h-38.68v-38.69ZM893.41,297.14v-38.69h38.69v38.69h-38.69ZM932.1,298.14v38.69h-38.69v-38.69h38.69ZM893.41,257.45v-38.68h38.69v38.68h-38.69ZM893.41,217.77v-38.69h38.69v38.69h-38.69ZM893.41,178.08v-38.69h38.69v38.69h-38.69ZM893.41,138.4v-38.69h38.69v38.69h-38.69ZM893.41,98.71v-38.68h38.69v38.68h-38.69ZM893.41,59.03V20.34h38.69v38.69h-38.69ZM893.41,337.82h38.69v38.69h-38.69v-38.69ZM933.1,297.14v-38.69h38.69v38.69h-38.69ZM971.78,298.14v38.69h-38.69v-38.69h38.69ZM933.1,257.45v-38.68h38.69v38.68h-38.69ZM933.1,217.77v-38.69h38.69v38.69h-38.69ZM933.1,178.08v-38.69h38.69v38.69h-38.69ZM933.1,138.4v-38.69h38.69v38.69h-38.69ZM933.1,98.71v-38.68h38.69v38.68h-38.69ZM933.1,59.03V20.34h38.69v38.69h-38.69ZM933.1,337.82h38.69v38.69h-38.69v-38.69ZM972.78,297.14v-38.69h38.69v38.69h-38.69ZM1011.47,298.14v38.69h-38.69v-38.69h38.69ZM972.78,257.45v-38.68h38.69v38.68h-38.69ZM972.78,217.77v-38.69h38.69v38.69h-38.69ZM972.78,178.08v-38.69h38.69v38.69h-38.69ZM972.78,138.4v-38.69h38.69v38.69h-38.69ZM972.78,98.71v-38.68h38.69v38.68h-38.69ZM972.78,59.03V20.34h38.69v38.69h-38.69ZM972.78,337.82h38.69v38.69h-38.69v-38.69Z"/>
  <circle class="cls-2" cx="79.37" cy="79.37" r="14.17"/>
  <circle class="cls-2" cx="198.43" cy="238.11" r="14.17"/>
  <circle class="cls-2" cx="158.74" cy="357.17" r="14.17"/>
  <circle class="cls-2" cx="317.48" cy="119.06" r="14.17"/>
  <circle class="cls-2" cx="515.91" cy="39.69" r="14.17"/>
  <circle class="cls-2" cx="436.54" cy="238.11" r="14.17"/>
  <circle class="cls-2" cx="595.28" cy="198.43" r="14.17"/>
  <circle class="cls-2" cx="595.28" cy="357.17" r="14.17"/>
  <circle class="cls-2" cx="714.33" cy="79.37" r="14.17"/>
  <circle class="cls-2" cx="754.02" cy="317.48" r="14.17"/>
  <circle class="cls-2" cx="833.39" cy="198.43" r="14.17"/>
  <circle class="cls-2" cx="912.76" cy="158.74" r="14.17"/>
  <polygon class="cls-1" points="297.64 99.21 257.95 99.21 257.95 59.53 218.27 59.53 218.27 99.21 178.58 99.21 178.58 138.9 218.27 138.9 218.27 178.58 257.95 178.58 257.95 138.9 297.64 138.9 297.64 99.21"/>
  <polygon class="cls-1" points="496.06 99.21 456.38 99.21 456.38 59.53 416.69 59.53 416.69 99.21 377.01 99.21 377.01 138.9 416.69 138.9 416.69 178.58 456.38 178.58 456.38 138.9 496.06 138.9 496.06 99.21"/>
  <polygon class="cls-1" points="694.49 99.21 654.8 99.21 654.8 59.53 615.12 59.53 615.12 99.21 575.43 99.21 575.43 138.9 615.12 138.9 615.12 178.58 654.8 178.58 654.8 138.9 694.49 138.9 694.49 99.21"/>
  <polygon class="cls-1" points="892.91 99.21 853.23 99.21 853.23 59.53 813.54 59.53 813.54 99.21 773.86 99.21 773.86 138.9 813.54 138.9 813.54 178.58 853.23 178.58 853.23 138.9 892.91 138.9 892.91 99.21"/>
  <polygon class="cls-1" points="178.58 257.95 138.9 257.95 138.9 218.27 99.21 218.27 99.21 257.95 59.53 257.95 59.53 297.64 99.21 297.64 99.21 337.32 138.9 337.32 138.9 297.64 178.58 297.64 178.58 257.95"/>
  <polygon class="cls-1" points="377.01 257.95 337.32 257.95 337.32 218.27 297.64 218.27 297.64 257.95 257.95 257.95 257.95 297.64 297.64 297.64 297.64 337.32 337.32 337.32 337.32 297.64 377.01 297.64 377.01 257.95"/>
  <polygon class="cls-1" points="575.43 257.95 535.75 257.95 535.75 218.27 496.06 218.27 496.06 257.95 456.38 257.95 456.38 297.64 496.06 297.64 496.06 337.32 535.75 337.32 535.75 297.64 575.43 297.64 575.43 257.95"/>
  <polygon class="cls-1" points="773.86 257.95 734.17 257.95 734.17 218.27 694.49 218.27 694.49 257.95 654.8 257.95 654.8 297.64 694.49 297.64 694.49 337.32 734.17 337.32 734.17 297.64 773.86 297.64 773.86 257.95"/>
  <polygon class="cls-1" points="972.28 257.95 932.6 257.95 932.6 218.27 892.91 218.27 892.91 257.95 853.23 257.95 853.23 297.64 892.91 297.64 892.91 337.32 932.6 337.32 932.6 297.64 972.28 297.64 972.28 257.95"/>
</svg>